<svg width="198" height="23" viewBox="0 0 198 23" fill="none" xmlns="http://www.w3.org/2000/svg">
<path d="M173.967 21.9315H196.944V5.55371L173.967 21.9315ZM184.13 5.55371L170.605 21.9315L187.648 9.79584L184.13 5.55371ZM170.604 5.55371V18.9273L177.564 10.5042L170.604 5.55371Z" fill="white"/>
<path d="M42.0005 6.94888V5.55407H38.2887V21.9319H42.0314V12.9446C42.0314 10.4734 43.3804 8.8767 45.4679 8.8767C46.2972 8.8767 47.2149 9.08206 47.8385 9.40048L48.7253 5.54369C47.9933 5.2668 47.216 5.13759 46.233 5.13759C44.4551 5.13759 43.0033 5.76058 42.0005 6.94888ZM86.0776 18.6427C83.4814 18.6427 81.6681 16.6284 81.6681 13.7441C81.6681 10.8576 83.4814 8.84324 86.0776 8.84324C88.6748 8.84324 90.4859 10.8576 90.4859 13.7441C90.4859 16.6284 88.6748 18.6427 86.0776 18.6427ZM90.2792 7.26615C89.2664 5.9394 87.8588 5.13759 85.6795 5.13759C81.2037 5.13759 77.8302 8.83748 77.8302 13.7441C77.8302 18.6485 81.2037 22.3484 85.6795 22.3484C87.8478 22.3484 89.2498 21.5615 90.2792 20.1817V21.9319H94.023V5.55407H90.2792V7.26615ZM119.96 18.6427C117.365 18.6427 115.553 16.6284 115.553 13.7441C115.553 10.8576 117.365 8.84324 119.96 8.84324C122.556 8.84324 124.37 10.8576 124.37 13.7441C124.37 16.6284 122.556 18.6427 119.96 18.6427ZM124.162 7.26615C123.149 5.9394 121.74 5.13759 119.561 5.13759C115.089 5.13759 111.713 8.83748 111.713 13.7441C111.713 18.6485 115.089 22.3484 119.561 22.3484C121.729 22.3484 123.131 21.5615 124.162 20.1817V21.9319H127.906V5.55407H124.162V7.26615ZM157.045 18.6427C154.45 18.6427 152.637 16.6284 152.637 13.7441C152.637 10.8576 154.45 8.84324 157.045 8.84324C159.641 8.84324 161.454 10.8576 161.454 13.7441C161.454 16.6284 159.641 18.6427 157.045 18.6427ZM161.245 7.26615C160.234 5.9394 158.826 5.13759 156.646 5.13759C152.172 5.13759 148.798 8.83748 148.798 13.7441C148.798 18.6485 152.172 22.3484 156.646 22.3484C158.815 22.3484 160.216 21.5615 161.245 20.1817V21.9319H164.989V5.55407H161.245V7.26615ZM139.156 18.6427C136.56 18.6427 134.747 16.6284 134.747 13.7441C134.747 10.8587 136.56 8.84324 139.156 8.84324C141.751 8.84324 143.564 10.8587 143.564 13.7441C143.564 16.6284 141.751 18.6427 139.156 18.6427ZM139.555 5.13759C137.701 5.13759 136.128 5.81134 134.97 7.09309V0.650879H131.227V21.9319H134.97V20.1829C135.993 21.6065 137.601 22.3507 139.555 22.3507C144.029 22.3507 147.401 18.6496 147.401 13.7441C147.401 8.83863 144.029 5.13759 139.555 5.13759ZM112.266 5.55522H107.521L102.477 11.6167H101.099V0.650879H97.3401V21.9307H101.099V15.2047H102.457L107.549 21.9307H112.298L105.677 13.2838L112.266 5.55522ZM69.4978 5.13874C67.7243 5.13874 65.3482 5.61175 63.9097 7.81069C62.7653 6.10784 60.8613 5.13874 58.6289 5.13874C57.2766 5.13874 55.4567 5.49177 54.1409 7.08963V5.55407H50.4136V21.9319H54.173V12.8777C54.173 10.1146 56.0582 8.8767 57.9268 8.8767C60.0597 8.8767 61.2825 10.3234 61.2825 12.8442V21.933H65.0408V12.8766C65.0408 10.1146 66.9271 8.8767 68.7957 8.8767C70.9286 8.8767 72.1515 10.3234 72.1515 12.8442V21.933H75.9097V11.6952C75.9097 7.83376 73.2737 5.13759 69.4967 5.13759M27.7006 18.6427C25.0448 18.6427 23.1176 16.5822 23.1176 13.7441C23.1176 10.9049 25.0448 8.84324 27.7006 8.84324C30.3664 8.84324 32.3014 10.9049 32.3014 13.7441C32.3014 16.5822 30.3653 18.6427 27.7006 18.6427ZM27.7017 5.13759C22.8997 5.13759 19.2786 8.83748 19.2786 13.7441C19.2786 18.6485 22.8997 22.3484 27.7006 22.3484C32.5115 22.3484 36.1403 18.6485 36.1403 13.7441C36.1403 8.83748 32.5126 5.13759 27.7017 5.13759ZM9.3009 18.6427C6.70585 18.6427 4.89363 16.6284 4.89363 13.7441C4.89363 10.8587 6.70696 8.84324 9.302 8.84324C11.8971 8.84324 13.7104 10.8587 13.7104 13.7441C13.7104 16.6284 11.8959 18.6427 9.3009 18.6427ZM13.5036 7.12194C12.3426 5.82057 10.7637 5.13759 8.90285 5.13759C4.42703 5.13759 1.05469 8.83748 1.05469 13.7441C1.05469 18.6485 4.42814 22.3495 8.90285 22.3495C11.2248 22.3495 12.4035 21.5269 13.5025 20.1806V21.9319H17.2464V0.650879H13.5036V7.12194Z" fill="white"/>
</svg>
