<svg width="188" height="39" viewBox="0 0 188 39" fill="none" xmlns="http://www.w3.org/2000/svg">
<g clip-path="url(#clip0_2030_102)">
<mask id="mask0_2030_102" style="mask-type:luminance" maskUnits="userSpaceOnUse" x="0" y="0" width="188" height="39">
<path d="M188 0H0V39H188V0Z" fill="white"/>
</mask>
<g mask="url(#mask0_2030_102)">
<path d="M165.627 10.7334H161.773V21.5991L154.898 11.7816C154.664 11.461 154.355 11.1997 153.998 11.0196C153.641 10.8395 153.245 10.7454 152.843 10.7454H150.318V28.2183H154.171V17.3465L160.995 27.086C161.224 27.4336 161.538 27.7193 161.908 27.917C162.279 28.1148 162.692 28.2183 163.114 28.2183C163.203 28.2178 163.293 28.2128 163.383 28.2032V28.2183H165.638V25.9958C165.643 25.9078 165.643 25.8196 165.638 25.7316L165.627 10.7334Z" fill="white"/>
<path d="M100.436 10.4092C102.878 10.4092 105.321 10.7936 107.36 12.2111L105.281 15.2323C103.929 14.3734 102.121 13.6316 100.498 13.5745C99.6244 13.5745 98.4179 13.7818 98.0549 14.6677C97.9864 14.8372 97.961 15.0207 97.9822 15.202C98.0025 15.3832 98.0685 15.5567 98.1742 15.7068C98.3764 16.039 98.6827 16.2982 99.0474 16.4457C100.023 16.8995 101.03 17.2859 102.06 17.6019C104.137 18.2806 106.454 19.1396 107.538 21.1547C107.944 21.8247 108.15 22.5935 108.134 23.3735C108.118 24.1535 107.88 24.9133 107.446 25.5665C106.215 27.6988 103.605 28.5997 101.218 28.5997C98.3299 28.5997 95.4998 27.6988 93.3008 25.7857L95.6182 22.9147C97.2765 24.1159 99.2818 25.194 101.401 25.194C102.244 25.194 103.416 24.9298 103.81 24.1279C103.928 23.8718 103.962 23.5857 103.908 23.3095C103.853 23.0333 103.712 22.7809 103.505 22.5873C102.933 21.7884 101.728 21.3139 100.794 20.9895C100.314 20.7823 99.8012 20.6322 99.319 20.455C98.8367 20.2778 98.3265 20.1006 97.7918 19.9234C96.1682 19.2717 94.9041 18.59 94.2112 16.8721C93.987 16.3341 93.8795 15.756 93.8947 15.1748C93.9108 14.5936 94.0496 14.022 94.3025 13.4964C95.4135 11.3041 98.0947 10.4182 100.443 10.4182" fill="white"/>
<path d="M169.248 19.4999C169.248 14.1662 173.217 10.4092 178.642 10.4092C184.067 10.4092 188.003 14.1391 188.003 19.4999C188.003 24.8007 184 28.5907 178.642 28.5907C173.284 28.5907 169.248 24.8007 169.248 19.4999ZM173.104 19.4999C173.104 22.6684 175.299 25.2421 178.642 25.2421C181.985 25.2421 184.137 22.6684 184.137 19.4999C184.137 16.3315 181.967 13.7547 178.642 13.7547C175.317 13.7547 173.104 16.3015 173.104 19.4999Z" fill="white"/>
<path d="M121.36 12.274C121.129 11.8179 120.774 11.433 120.336 11.1612C119.898 10.8893 119.392 10.7409 118.873 10.7323C118.355 10.7237 117.844 10.8549 117.397 11.112C116.949 11.3689 116.582 11.7418 116.335 12.19C116.289 12.274 116.133 12.6375 116.133 12.6375L109.963 28.2063H114.207L115.352 25.155H122.306L123.451 28.2063H127.665L121.586 12.8027C121.586 12.8027 121.388 12.3342 121.36 12.274ZM116.347 22.2538L118.814 15.7068L121.281 22.2538H116.347Z" fill="white"/>
<path d="M145.937 10.7334H142.074V21.5991L135.193 11.7816C134.958 11.461 134.65 11.1997 134.293 11.0196C133.935 10.8395 133.54 10.7454 133.138 10.7454H130.613V28.2183H134.466V17.3465L141.29 27.086C141.519 27.4336 141.833 27.7193 142.203 27.917C142.573 28.1148 142.987 28.2183 143.409 28.2183C143.498 28.2178 143.588 28.2128 143.678 28.2032V28.2183H145.937V25.9958C145.941 25.9078 145.941 25.8196 145.937 25.7316V10.7334Z" fill="white"/>
<path d="M53.7559 10.6314H62.2617C63.0644 10.6136 63.8626 10.7538 64.6094 11.0437C65.3563 11.3336 66.0367 11.7672 66.6108 12.3194C67.1848 12.8715 67.641 13.5309 67.9523 14.2588C68.2638 14.9868 68.4242 15.7685 68.4242 16.5583C68.4242 17.3481 68.2638 18.1298 67.9523 18.8577C67.641 19.5857 67.1848 20.2451 66.6108 20.7972C66.0367 21.3493 65.3563 21.783 64.6094 22.0729C63.8626 22.3628 63.0644 22.5029 62.2617 22.4851H57.6607V28.1913H53.7559V10.6314ZM57.6607 13.998V19.1215H61.99C62.332 19.1215 62.6706 19.0553 62.9866 18.9265C63.3026 18.7978 63.5896 18.6091 63.8315 18.3713C64.0734 18.1333 64.2652 17.851 64.3961 17.5401C64.5269 17.2293 64.5943 16.8962 64.5943 16.5598C64.5943 16.2233 64.5269 15.8902 64.3961 15.5795C64.2652 15.2686 64.0734 14.9862 63.8315 14.7483C63.5896 14.5104 63.3026 14.3218 62.9866 14.193C62.6706 14.0643 62.332 13.998 61.99 13.998H57.6607Z" fill="white"/>
<path d="M70.3555 10.6343H84.2806V13.9979H79.2552V28.2062H75.3503V13.9979H70.3555V10.6343Z" fill="white"/>
<path d="M87.731 24.5996C88.9519 24.5996 89.9105 25.4616 89.9105 26.5337C89.9105 27.6059 88.9434 28.4708 87.731 28.4708C86.5185 28.4708 85.5938 27.6059 85.5938 26.5337C85.5938 25.4616 86.5651 24.5996 87.731 24.5996Z" fill="white"/>
<path d="M38.5993 0H12.5138C9.19388 0 6.00995 1.29729 3.66243 3.60647C1.31492 5.91566 -0.00390625 9.04758 -0.00390625 12.3132C-0.00390625 15.579 1.31492 18.7109 3.66243 21.0201C6.00995 23.3293 9.19388 24.6265 12.5138 24.6265H13.0786V6.53504C13.2618 6.80833 13.6739 7.43601 13.7838 7.58017C15.0327 9.36217 16.7031 10.8189 18.6512 11.8249C20.5994 12.831 22.7669 13.3562 24.9673 13.3554H29.6111L38.5993 0Z" fill="white"/>
<path d="M1.02148 39.0001H27.107C30.427 39.0001 33.6109 37.7028 35.9584 35.3936C38.3059 33.0844 39.6247 29.9525 39.6247 26.6868C39.6247 23.4211 38.3059 20.2892 35.9584 17.98C33.6109 15.6708 30.427 14.3735 27.107 14.3735H26.5423V32.462C26.359 32.1858 25.9469 31.5611 25.837 31.4169C24.5889 29.6342 22.9187 28.1769 20.9703 27.1708C19.0219 26.1646 16.854 25.6399 14.6535 25.6417H10.022L1.02148 39.0001Z" fill="white"/>
</g>
</g>
<defs>
<clipPath id="clip0_2030_102">
<rect width="188" height="39" fill="white"/>
</clipPath>
</defs>
</svg>
