<svg width="142" height="39" viewBox="0 0 142 39" fill="none" xmlns="http://www.w3.org/2000/svg">
<g clip-path="url(#clip0_2030_74)">
<path d="M0 19.5C0 8.736 8.78431 0 19.6078 0C24.7059 0 29.3726 1.95 32.8627 5.148L31.5294 6.825C28.3922 3.939 24.2353 2.145 19.6078 2.145C9.96078 2.145 2.15686 9.906 2.15686 19.5C2.15686 29.094 9.96078 36.894 19.6078 36.894H20.1569C22.6667 35.295 18.1176 30.069 16.7451 28.899C21.7255 22.698 18.4314 13.572 18.4314 13.572C18.4314 13.572 21.4902 17.745 22.8627 19.422C26.1569 11.154 34.0392 8.814 37.0196 7.254C30.2745 14.625 33.9608 21.606 38.5882 24.297C36.902 30.927 31.8039 36.192 25.2549 38.142L24.4314 36.153C29.7255 34.671 33.9608 30.771 35.9216 25.74C31.5686 22.776 30.549 18.33 30.8235 13.611C25.8431 15.444 23.9608 25.701 23.9608 25.701C23.9608 25.701 22.7451 24.024 21.6863 22.464C21.5294 24.882 20.7451 26.832 19.9608 28.47C26.4706 35.607 21.9216 38.883 21.9216 38.883C21.1373 38.961 20.3922 39 19.6078 39C8.78431 39 0 30.264 0 19.5Z" fill="white"/>
<path d="M40.0781 37.167L48.8232 28.86L44.5095 14.313H59.4115L60.4311 17.862L64.1566 14.313H74.1173L61.9605 23.049L65.137 33.891H87.5291L88.235 30.888H75.3722C73.2546 30.888 73.3722 29.406 73.686 28.08C73.9997 26.754 76.1958 18.447 76.5879 16.887C76.9801 15.327 78.3526 14.313 79.9605 14.313H89.4115L86.0781 27.573H89.0977L92.4311 14.313H132.117C134.509 14.313 134.549 15.99 134.313 17.121C134.078 18.252 132.784 22.932 132.784 22.932L125.098 17.745H119.411L115.372 33.891H118.745L120.196 28.158H118.666L119.529 24.726H134.902L134.039 28.197H132L129.568 37.167L127.451 35.178C127.255 35.568 126.078 37.167 124.627 37.167H106.392C103.686 37.167 103.333 35.061 103.882 32.877C104.431 30.693 107.725 17.823 107.725 17.823H104.509C104.509 17.823 101.921 28.236 101.059 31.824C100.196 35.412 98.784 37.167 95.9605 37.167H51.2938L49.8036 32.214L40.0781 37.167Z" fill="white"/>
<path d="M139.216 7.68311C140.745 7.68311 141.961 8.89211 141.961 10.4131C141.961 11.9341 140.706 13.1431 139.216 13.1431C137.686 13.1431 136.471 11.9341 136.471 10.4131C136.471 8.93111 137.686 7.68311 139.216 7.68311ZM139.216 8.03411C137.882 8.03411 136.784 9.1261 136.784 10.4521C136.784 11.7781 137.882 12.8701 139.216 12.8701C140.549 12.8701 141.647 11.7781 141.647 10.4521C141.647 9.0871 140.549 8.03411 139.216 8.03411Z" fill="white"/>
<path fill-rule="evenodd" clip-rule="evenodd" d="M138.275 8.89209H138.981C139.373 8.89209 139.648 8.89209 139.766 8.93109C139.962 8.97009 140.158 9.04809 140.275 9.20409C140.393 9.32109 140.471 9.47709 140.471 9.67209C140.471 9.82809 140.432 9.98409 140.354 10.1011C140.275 10.2181 140.119 10.3351 139.962 10.3741C139.805 10.4521 139.57 10.4521 139.256 10.4521L140.511 11.8171H140.079L138.824 10.4521H138.628V11.8171H138.275V8.89209ZM138.628 9.16509V10.1791H139.256C139.491 10.1791 139.648 10.1791 139.766 10.1401C139.883 10.1011 139.962 10.0621 140.04 9.94509C140.119 9.86709 140.119 9.78909 140.119 9.67209C140.119 9.55509 140.079 9.47709 140.04 9.39909C139.962 9.32109 139.883 9.24309 139.805 9.24309C139.687 9.20409 139.53 9.20409 139.295 9.20409H138.628V9.16509Z" fill="white"/>
</g>
<defs>
<clipPath id="clip0_2030_74">
<rect width="142" height="39" fill="white"/>
</clipPath>
</defs>
</svg>
